<svg xmlns="http://www.w3.org/2000/svg" enable-background="new 0 0 34 34" viewBox="0 0 34 34"><path d="M9.2 33H2c-.5 0-1-.5-1-1v-7.3c0-.6.5-1 1-1h7V32C9 32.3 9.1 32.7 9.2 33zM23 20v12c0 .5-.5 1-1 1H12c-.5 0-1-.5-1-1V20c0-.6.5-1 1-1h10C22.5 19 23 19.4 23 20zM33 26v6c0 .5-.5 1-1 1h-7.2c.1-.3.2-.7.2-1v-7h7C32.5 25 33 25.4 33 26zM25.1 8l-3.3 3.2.8 4.6c.1.4-.1.8-.4 1-.3.2-.8.2-1.1.1L17 14.7l-4.1 2.1c-.3.2-.7.2-1-.1-.3-.2-.5-.6-.4-1l.8-4.6L8.9 8C8.7 7.8 8.6 7.4 8.7 7c.1-.4.4-.6.8-.7l4.6-.7 2-4.1c.3-.7 1.5-.7 1.8 0l2 4.1 4.6.7c.4.1.7.3.8.7C25.4 7.4 25.3 7.8 25.1 8z"/></svg>